<svg id="contactMeSvg" data-name="Layer 1" xmlns="http://www.w3.org/2000/svg" viewBox="0 0 171.64 146.8">
    <defs>
        <style>
            .cls-1 {
                font-size: 16px;
                font-family: Montserrat-Bold, Montserrat;
                font-weight: 700;
            }
        </style>
    </defs><text class="cls-1" transform="matrix(0.76, -0.65, 0.65, 0.76, 46.04, 30.28)">C</text><text class="cls-1"
        transform="translate(53.99 23.48) rotate(-30.01)">o</text><text class="cls-1"
        transform="translate(62.17 18.62) rotate(-19.71)">n</text><text class="cls-1"
        transform="translate(71.81 15.26) rotate(-11.09)">t</text><text class="cls-1"
        transform="translate(77.87 13.92) rotate(-3.11)">a</text><text class="cls-1"
        transform="matrix(0.99, 0.11, -0.11, 0.99, 86.94, 13.38)">c</text><text class="cls-1"
        transform="translate(95.71 14.35) rotate(14)">t</text><text class="cls-1"
        transform="translate(101.94 15.94) rotate(19.51)"> </text><text class="cls-1"
        transform="translate(105.57 16.68) rotate(28.99)">M</text><text class="cls-1"
        transform="translate(117.86 23.66) rotate(41.03)">e</text><text class="cls-1"
        transform="translate(22.05 50.75) rotate(100.26)">C</text><text class="cls-1"
        transform="translate(19.95 63.03) rotate(90.01)">o</text><text class="cls-1"
        transform="translate(20.02 74.55) rotate(79.71)">n</text><text class="cls-1"
        transform="translate(22.36 86.23) rotate(71.07)">t</text><text class="cls-1"
        transform="translate(24.84 93.58) rotate(63.08)">a</text><text class="cls-1"
        transform="matrix(0.59, 0.81, -0.81, 0.59, 29.84, 103.23)">c</text><text class="cls-1"
        transform="translate(36.07 111.53) rotate(45.97)">t</text><text class="cls-1"
        transform="translate(41.34 116.86) rotate(40.46)"> </text><text class="cls-1"
        transform="translate(45.29 120.7) rotate(31.01)">M</text><text class="cls-1"
        transform="translate(59.61 128.84) rotate(18.97)">e</text><text class="cls-1"
        transform="translate(102.57 132.17) rotate(-19.74)">C</text><text class="cls-1"
        transform="translate(114.25 127.85) rotate(-29.99)">o</text><text class="cls-1"
        transform="translate(124.19 122.04) rotate(-40.29)">n</text><text class="cls-1"
        transform="translate(133.14 114.16) rotate(-48.93)">t</text><text class="cls-1"
        transform="translate(138.27 108.34) rotate(-56.92)">a</text><text class="cls-1"
        transform="translate(144.12 99.19) rotate(-66.07)">c</text><text class="cls-1"
        transform="matrix(0.28, -0.96, 0.96, 0.28, 148.19, 89.65)">t</text><text class="cls-1"
        transform="translate(150.17 82.41) rotate(-79.54)"> </text><text class="cls-1"
        transform="matrix(0.02, -1, 1, 0.02, 151.53, 77.07)">M</text><text class="cls-1"
        transform="translate(151.42 60.6) rotate(-101.03)">e</text>
</svg>