<svg id="frontEndSVG" data-name="Layer 1" xmlns="http://www.w3.org/2000/svg" viewBox="0 0 165.83 141.76">
    <defs>
        <style>
            .cls-1,
            .cls-2 {
                font-size: 16px;
            }

            .cls-1 {
                font-family: Montserrat-Bold, Montserrat;
                font-weight: 700;
            }

            .cls-2 {
                font-family: Montserrat-SemiBold, Montserrat;
                font-weight: 600;
            }
        </style>
    </defs><text class="cls-1" transform="translate(47.4 26.37) rotate(-35.03)">F</text><text class="cls-1"
        transform="matrix(0.89, -0.45, 0.45, 0.89, 55.04, 21.07)">r</text><text class="cls-1"
        transform="translate(60.27 18.19) rotate(-18.87)">o</text><text class="cls-1"
        transform="translate(69.23 15) rotate(-8.57)">n</text><text class="cls-1"
        transform="matrix(1, -0.02, 0.02, 1, 79.45, 13.62)">t</text><text class="cls-1"
        transform="translate(85.59 13.54) rotate(5.96)">-</text><text class="cls-1"
        transform="matrix(0.97, 0.24, -0.24, 0.97, 91.15, 13.94)">e</text><text class="cls-1"
        transform="matrix(0.91, 0.41, -0.41, 0.91, 100.07, 16.02)">n</text><text class="cls-1"
        transform="matrix(0.82, 0.57, -0.57, 0.82, 109.37, 20.06)">d</text><text class="cls-2"
        transform="translate(17.67 57.96) rotate(94.56)">F</text><text class="cls-2"
        transform="translate(16.97 68.74) rotate(86.67)">r</text><text class="cls-2"
        transform="translate(17.32 76.09) rotate(78.67)">o</text><text class="cls-2"
        transform="translate(19.61 87.2) rotate(68.48)">n</text><text class="cls-2"
        transform="translate(24.14 97.99) rotate(60.93)">t</text><text class="cls-2"
        transform="translate(27.75 104.3) rotate(54.2)">-</text><text class="cls-2"
        transform="matrix(0.69, 0.72, -0.72, 0.69, 31.86, 110.11)">e</text><text class="cls-2"
        transform="matrix(0.81, 0.59, -0.59, 0.81, 39.46, 118.02)">n</text><text class="cls-2"
        transform="matrix(0.9, 0.44, -0.44, 0.9, 49.25, 125.09)">d</text><text class="cls-2"
        transform="translate(106.65 129.85) rotate(-25.44)">F</text><text class="cls-2"
        transform="translate(116.34 125.06) rotate(-33.33)">r</text><text class="cls-2"
        transform="translate(122.53 121.09) rotate(-41.33)">o</text><text class="cls-2"
        transform="matrix(0.62, -0.78, 0.78, 0.62, 131.01, 113.55)">n</text><text class="cls-2"
        transform="matrix(0.51, -0.86, 0.86, 0.51, 138.09, 104.24)">t</text><text class="cls-2"
        transform="matrix(0.41, -0.91, 0.91, 0.41, 141.75, 97.96)">-</text><text class="cls-2"
        transform="translate(144.73 91.49) rotate(-73.65)">e</text><text class="cls-2"
        transform="translate(147.77 80.95) rotate(-83.67)">n</text><text class="cls-2"
        transform="translate(149 68.94) rotate(-94.19)">d</text>
</svg>