<svg id="Layer_1" data-name="mobileDevSVG 1" xmlns="http://www.w3.org/2000/svg" viewBox="0 0 170.03 145.4">
    <defs>
        <style>
            .cls-1,
            .cls-2 {
                font-size: 16px;
            }

            .cls-1 {
                font-family: Montserrat-Bold, Montserrat;
                font-weight: 700;
            }

            .cls-2 {
                font-family: Montserrat-SemiBold, Montserrat;
                font-weight: 600;
            }
        </style>
    </defs><text class="cls-1" transform="translate(45.8 29.39) rotate(-37.37)">M</text><text class="cls-1"
        transform="matrix(0.91, -0.42, 0.42, 0.91, 57.1, 20.93)">o</text><text class="cls-1"
        transform="matrix(0.97, -0.26, 0.26, 0.97, 65.66, 16.79)">b</text><text class="cls-1"
        transform="matrix(0.99, -0.13, 0.13, 0.99, 75.65, 14.31)">i</text><text class="cls-1"
        transform="translate(80.01 13.74) rotate(-2.68)">l</text><text class="cls-1"
        transform="translate(84.14 13.34) rotate(4.31)">e</text><text class="cls-1"
        transform="translate(93.52 14.18) rotate(11.25)"> </text><text class="cls-1"
        transform="translate(97.27 14.53) rotate(19.76)">D</text><text class="cls-1"
        transform="matrix(0.86, 0.51, -0.51, 0.86, 108.69, 18.69)">e</text><text class="cls-1"
        transform="matrix(0.77, 0.64, -0.64, 0.77, 116.49, 23.28)">v</text><text class="cls-2"
        transform="translate(20.5 52.96) rotate(96.73)">M</text><text class="cls-2"
        transform="matrix(0.1, 1, -1, 0.1, 18.96, 69.38)">o</text><text class="cls-2"
        transform="translate(20.1 80.67) rotate(74.34)">b</text><text class="cls-2"
        transform="translate(23.49 91.85) rotate(66.91)">i</text><text class="cls-2"
        transform="translate(25.49 96.49) rotate(62.54)">l</text><text class="cls-2"
        transform="matrix(0.56, 0.83, -0.83, 0.56, 27.85, 101.28)">e</text><text class="cls-2"
        transform="matrix(0.66, 0.75, -0.75, 0.66, 33.98, 109.91)"> </text><text class="cls-2"
        transform="translate(37.27 114.08) rotate(40.42)">D</text><text class="cls-2"
        transform="translate(48.33 123.15) rotate(29.36)">e</text><text class="cls-2"
        transform="translate(57.69 128.31) rotate(20.4)">v</text><text class="cls-2"
        transform="translate(104.06 131.71) rotate(-23.27)">M</text><text class="cls-2"
        transform="translate(119.04 124.84) rotate(-35.45)">o</text><text class="cls-2"
        transform="translate(128.25 118.21) rotate(-45.66)">b</text><text class="cls-2"
        transform="matrix(0.6, -0.8, 0.8, 0.6, 136.24, 109.67)">i</text><text class="cls-2"
        transform="translate(139.26 105.62) rotate(-57.46)">l</text><text class="cls-2"
        transform="translate(142.22 101.19) rotate(-64.31)">e</text><text class="cls-2"
        transform="translate(146.63 91.56) rotate(-71.12)"> </text><text class="cls-2"
        transform="matrix(0.18, -0.98, 0.98, 0.18, 148.6, 86.63)">D</text><text class="cls-2"
        transform="translate(150.92 72.52) rotate(-90.64)">e</text><text class="cls-2"
        transform="translate(150.72 61.83) rotate(-99.6)">v</text>
</svg>