<svg id="Layer_1" data-name="Layer 1" xmlns="http://www.w3.org/2000/svg" viewBox="0 0 136.83 138.28">
    <defs>
        <style>
            .cls-1,
            .cls-2 {
                font-size: 16px;
            }

            .cls-1 {
                font-family: Montserrat-Bold, Montserrat;
                font-weight: 700;
            }

            .cls-2 {
                font-family: Montserrat-Medium, Montserrat;
                font-weight: 500;
            }
        </style>
    </defs><text class="cls-1" transform="translate(14.23 59.5) rotate(-75.71)">T</text><text class="cls-1"
        transform="translate(16.12 51.53) rotate(-66.96)">e</text><text class="cls-1"
        transform="translate(19.55 43.24) rotate(-57.68)">a</text><text class="cls-1"
        transform="translate(24.38 35.53) rotate(-48.42)">c</text><text class="cls-1"
        transform="translate(29.9 29.08) rotate(-38.78)">h</text><text class="cls-1"
        transform="translate(38.04 22.74) rotate(-31.26)">i</text><text class="cls-1"
        transform="matrix(0.92, -0.4, 0.4, 0.92, 41.41, 20.4)">n</text><text class="cls-1"
        transform="translate(50.65 16.24) rotate(-12.95)">g</text><text class="cls-1"
        transform="translate(60.91 14.06) rotate(-5.44)"> </text><text class="cls-1"
        transform="matrix(1, 0.04, -0.04, 1, 64.67, 13.42)">&amp;</text><text class="cls-1"
        transform="translate(75.57 14.01) rotate(9.81)"> </text><text class="cls-1"
        transform="matrix(0.96, 0.29, -0.29, 0.96, 79.41, 14.47)">T</text><text class="cls-1"
        transform="translate(87.86 16.86) rotate(26.51)">u</text><text class="cls-1"
        transform="matrix(0.82, 0.57, -0.57, 0.82, 96.91, 21.48)">t</text><text class="cls-1"
        transform="matrix(0.73, 0.68, -0.68, 0.73, 101.87, 24.72)">o</text><text class="cls-1"
        transform="translate(108.91 31.39) rotate(51.26)">r</text><text class="cls-1"
        transform="translate(112.84 36.32) rotate(56.75)">i</text><text class="cls-1"
        transform="matrix(0.43, 0.9, -0.9, 0.43, 115.3, 39.61)">n</text><text class="cls-1"
        transform="matrix(0.26, 0.97, -0.97, 0.26, 119.78, 48.7)">g</text><text class="cls-2"
        transform="matrix(0.29, 0.96, -0.96, 0.29, 4.04, 82.95)">T</text><text class="cls-2"
        transform="matrix(0.43, 0.9, -0.9, 0.43, 6.75, 91.92)">e</text><text class="cls-2"
        transform="matrix(0.56, 0.83, -0.83, 0.56, 11.26, 101.32)">a</text><text class="cls-2"
        transform="translate(17.25 109.95) rotate(46.83)">c</text><text class="cls-2"
        transform="translate(24.06 117.22) rotate(37.48)">h</text><text class="cls-2"
        transform="translate(33.42 124.09) rotate(30.18)">i</text><text class="cls-2"
        transform="translate(37.85 126.84) rotate(22.84)">n</text><text class="cls-2"
        transform="matrix(0.98, 0.21, -0.21, 0.98, 48.93, 131.41)">g</text><text class="cls-2"
        transform="translate(60.48 133.66) rotate(4.98)"> </text><text class="cls-2"
        transform="translate(65.47 134.26) rotate(-2.18)">&amp;</text><text class="cls-2"
        transform="matrix(0.99, -0.16, 0.16, 0.99, 77.13, 133.56)"> </text><text class="cls-2"
        transform="translate(82.02 132.86) rotate(-15.94)">T</text><text class="cls-2"
        transform="translate(91.78 130.07) rotate(-25.44)">u</text><text class="cls-2"
        transform="matrix(0.83, -0.56, 0.56, 0.83, 102.19, 124.88)">t</text><text class="cls-2"
        transform="translate(108.15 121.01) rotate(-41.41)">o</text><text class="cls-2"
        transform="matrix(0.65, -0.76, 0.76, 0.65, 116.23, 113.64)">r</text><text class="cls-2"
        transform="translate(120.73 108.31) rotate(-54.45)">i</text><text class="cls-2"
        transform="matrix(0.47, -0.88, 0.88, 0.47, 123.88, 104.18)">n</text><text class="cls-2"
        transform="matrix(0.3, -0.95, 0.95, 0.3, 129.47, 93.57)">g</text>
</svg>