<svg id="Layer_1" data-name="Layer 1" xmlns="http://www.w3.org/2000/svg" viewBox="0 0 120.5 138.26">
    <defs>
        <style>
            .cls-1,
            .cls-2 {
                font-size: 16px;
            }

            .cls-1 {
                font-family: Montserrat-Bold, Montserrat;
                font-weight: 700;
            }

            .cls-2 {
                font-family: Montserrat-Medium, Montserrat;
                font-weight: 500;
            }
        </style>
    </defs><text class="cls-1" transform="translate(12.4 41.05) rotate(-53.79)">U</text><text class="cls-1"
        transform="matrix(0.7, -0.71, 0.71, 0.7, 19.53, 31.67)">I</text><text class="cls-1"
        transform="translate(22.9 28.26) rotate(-40.73)"> </text><text class="cls-1"
        transform="matrix(0.84, -0.55, 0.55, 0.84, 25.61, 25.54)">&amp;</text><text class="cls-1"
        transform="translate(34.83 19.76) rotate(-25.36)"> </text><text class="cls-1"
        transform="translate(38.09 17.84) rotate(-17.14)">U</text><text class="cls-1"
        transform="matrix(0.99, -0.1, 0.1, 0.99, 48.93, 14.43)">X</text><text class="cls-1"
        transform="translate(59.6 13.52) rotate(1.66)"> </text><text class="cls-1"
        transform="translate(63.34 13.25) rotate(10.04)">D</text><text class="cls-1"
        transform="matrix(0.93, 0.36, -0.36, 0.93, 75.31, 15.42)">e</text><text class="cls-1"
        transform="matrix(0.87, 0.5, -0.5, 0.87, 83.93, 18.76)">s</text><text class="cls-1"
        transform="translate(90.71 22.76) rotate(36.41)">i</text><text class="cls-1"
        transform="matrix(0.72, 0.69, -0.69, 0.72, 94.16, 24.99)">g</text><text class="cls-1"
        transform="translate(101.58 32.03) rotate(54.52)">n</text><text class="cls-2"
        transform="matrix(0.61, 0.79, -0.79, 0.61, 4.4, 103.68)">U</text><text class="cls-2"
        transform="matrix(0.72, 0.69, -0.69, 0.72, 12.95, 114.09)">I</text><text class="cls-2"
        transform="translate(16.89 117.81) rotate(39.32)"> </text><text class="cls-2"
        transform="matrix(0.85, 0.53, -0.53, 0.85, 20.67, 121.13)">&amp;</text><text class="cls-2"
        transform="matrix(0.91, 0.42, -0.42, 0.91, 30.69, 127.11)"> </text><text class="cls-2"
        transform="translate(35.26 129.48) rotate(16.68)">U</text><text class="cls-2"
        transform="translate(48.32 133.2) rotate(5.66)">X</text><text class="cls-2"
        transform="translate(59.74 134.09) rotate(-1.41)"> </text><text class="cls-2"
        transform="translate(64.9 134.23) rotate(-9.7)">D</text><text class="cls-2"
        transform="translate(78.97 131.55) rotate(-20.73)">e</text><text class="cls-2"
        transform="matrix(0.87, -0.49, 0.49, 0.87, 88.86, 127.67)">s</text><text class="cls-2"
        transform="matrix(0.82, -0.58, 0.58, 0.82, 96.31, 123.36)">i</text><text class="cls-2"
        transform="matrix(0.74, -0.68, 0.68, 0.74, 100.66, 120.5)">g</text><text class="cls-2"
        transform="translate(109.49 112.27) rotate(-52.87)">n</text>
</svg>