<svg height="512pt" viewBox="0 0 512 512" width="512pt" xmlns="http://www.w3.org/2000/svg"><path d="m15 456.835938c0 22.089843 18.074219 40.164062 40.164062 40.164062h401.667969c22.09375 0 40.167969-18.074219 40.167969-40.164062v-401.671876c0-22.089843-18.074219-40.164062-40.167969-40.164062h-401.667969c-22.089843 0-40.164062 18.074219-40.164062 40.164062zm0 0" fill="#ff9100"/><path d="m456.832031 15h-200.832031v482h200.832031c22.09375 0 40.167969-18.074219 40.167969-40.164062v-401.671876c0-22.089843-18.074219-40.164062-40.167969-40.164062zm0 0" fill="#ff4b00"/><path d="m456.832031 512h-401.667969c-30.417968 0-55.164062-24.746094-55.164062-55.164062v-401.671876c0-30.417968 24.746094-55.164062 55.164062-55.164062h401.667969c30.421875 0 55.167969 24.746094 55.167969 55.164062v401.671876c0 30.417968-24.746094 55.164062-55.167969 55.164062zm-401.667969-482c-13.875 0-25.164062 11.289062-25.164062 25.164062v401.671876c0 13.875 11.289062 25.164062 25.164062 25.164062h401.667969c13.878907 0 25.167969-11.289062 25.167969-25.164062v-401.671876c0-13.875-11.289062-25.164062-25.167969-25.164062zm0 0" fill="#ffd400"/><path d="m376.5 257.066406c-8.285156 0-15 6.714844-15 15v128.535156c0 8.28125 6.714844 15 15 15s15-6.71875 15-15v-128.535156c0-8.285156-6.714844-15-15-15zm0 0" fill="#ff9f04"/><path d="m214.21875 107.386719c-1.804688-6.492188-7.714844-10.984375-14.453125-10.984375s-12.648437 4.492187-14.453125 10.984375l-80.332031 289.199219c-2.21875 7.980468 2.457031 16.25 10.4375 18.46875 1.34375.371093 2.691406.550781 4.023437.550781 6.570313 0 12.597656-4.351563 14.445313-10.992188l19.261719-69.347656h93.234374l19.261719 69.347656c2.21875 7.984375 10.484375 12.65625 18.46875 10.441407 7.980469-2.21875 12.65625-10.488282 10.4375-18.46875zm-52.738281 197.878906 38.285156-137.820313 38.285156 137.820313zm0 0" fill="#ffd400"/><g fill="#ff9f04"><path d="m376.5 206.730469c3.949219 0 7.808594-1.597657 10.609375-4.386719 2.789063-2.800781 4.390625-6.660156 4.390625-10.613281 0-3.949219-1.601562-7.808594-4.390625-10.609375-2.800781-2.789063-6.660156-4.390625-10.609375-4.390625s-7.820312 1.601562-10.609375 4.390625c-2.789063 2.792968-4.390625 6.660156-4.390625 10.609375 0 3.953125 1.601562 7.8125 4.390625 10.613281 2.800781 2.789062 6.660156 4.386719 10.609375 4.386719zm0 0"/><path d="m294.554688 396.585938-38.554688-138.789063v112.089844l9.648438 34.726562c2.214843 7.984375 10.484374 12.65625 18.464843 10.4375 7.984375-2.214843 12.65625-10.484375 10.441407-18.464843zm0 0"/><path d="m456.832031 0h-200.832031v30h200.832031c13.878907 0 25.167969 11.289062 25.167969 25.164062v401.671876c0 13.875-11.289062 25.164062-25.167969 25.164062h-200.832031v30h200.832031c30.421875 0 55.167969-24.746094 55.167969-55.164062v-401.671876c0-30.417968-24.746094-55.164062-55.167969-55.164062zm0 0"/></g></svg>